<svg width="37" height="35" viewBox="0 0 37 35" fill="none" xmlns="http://www.w3.org/2000/svg">
<g clip-path="url(#clip0_23_9)">
<path d="M18.5 32.8125C14.2068 32.8125 10.0895 31.1992 7.05371 28.3276C4.01796 25.4559 2.3125 21.5611 2.3125 17.5C2.3125 13.4389 4.01796 9.54408 7.05371 6.67243C10.0895 3.80078 14.2068 2.1875 18.5 2.1875C22.7932 2.1875 26.9105 3.80078 29.9463 6.67243C32.982 9.54408 34.6875 13.4389 34.6875 17.5C34.6875 21.5611 32.982 25.4559 29.9463 28.3276C26.9105 31.1992 22.7932 32.8125 18.5 32.8125ZM18.5 35C23.4065 35 28.1121 33.1563 31.5815 29.8744C35.0509 26.5925 37 22.1413 37 17.5C37 12.8587 35.0509 8.40752 31.5815 5.12563C28.1121 1.84374 23.4065 0 18.5 0C13.5935 0 8.88795 1.84374 5.41852 5.12563C1.9491 8.40752 0 12.8587 0 17.5C0 22.1413 1.9491 26.5925 5.41852 29.8744C8.88795 33.1563 13.5935 35 18.5 35Z" fill="white"/>
<path d="M18.5 8.75C18.8067 8.75 19.1008 8.86523 19.3176 9.07035C19.5344 9.27547 19.6562 9.55367 19.6562 9.84375V16.4062H26.5938C26.9004 16.4062 27.1945 16.5215 27.4113 16.7266C27.6282 16.9317 27.75 17.2099 27.75 17.5C27.75 17.7901 27.6282 18.0683 27.4113 18.2734C27.1945 18.4785 26.9004 18.5938 26.5938 18.5938H19.6562V25.1562C19.6562 25.4463 19.5344 25.7245 19.3176 25.9296C19.1008 26.1348 18.8067 26.25 18.5 26.25C18.1933 26.25 17.8992 26.1348 17.6824 25.9296C17.4656 25.7245 17.3438 25.4463 17.3438 25.1562V18.5938H10.4062C10.0996 18.5938 9.8055 18.4785 9.58866 18.2734C9.37182 18.0683 9.25 17.7901 9.25 17.5C9.25 17.2099 9.37182 16.9317 9.58866 16.7266C9.8055 16.5215 10.0996 16.4062 10.4062 16.4062H17.3438V9.84375C17.3438 9.55367 17.4656 9.27547 17.6824 9.07035C17.8992 8.86523 18.1933 8.75 18.5 8.75Z" fill="white"/>
</g>
<defs>
<clipPath id="clip0_23_9">
<rect width="37" height="35" fill="white"/>
</clipPath>
</defs>
</svg>
