<svg width="50" height="35" viewBox="0 0 50 35" fill="none" xmlns="http://www.w3.org/2000/svg">
<path d="M21.875 35C21.875 35 18.75 35 18.75 32.0833C18.75 29.1667 21.875 20.4167 34.375 20.4167C46.875 20.4167 50 29.1667 50 32.0833C50 35 46.875 35 46.875 35H21.875ZM34.375 17.5C36.8614 17.5 39.246 16.5781 41.0041 14.9372C42.7623 13.2962 43.75 11.0706 43.75 8.75C43.75 6.42936 42.7623 4.20376 41.0041 2.56282C39.246 0.921873 36.8614 0 34.375 0C31.8886 0 29.504 0.921873 27.7459 2.56282C25.9877 4.20376 25 6.42936 25 8.75C25 11.0706 25.9877 13.2962 27.7459 14.9372C29.504 16.5781 31.8886 17.5 34.375 17.5ZM16.3 35C15.837 34.0894 15.6059 33.0911 15.625 32.0833C15.625 28.1313 17.75 24.0625 21.675 21.2333C19.7162 20.6688 17.6749 20.3932 15.625 20.4167C3.125 20.4167 0 29.1667 0 32.0833C0 35 3.125 35 3.125 35H16.3ZM14.0625 17.5C16.1345 17.5 18.1216 16.7318 19.5868 15.3643C21.0519 13.9969 21.875 12.1422 21.875 10.2083C21.875 8.27446 21.0519 6.4198 19.5868 5.05235C18.1216 3.68489 16.1345 2.91667 14.0625 2.91667C11.9905 2.91667 10.0034 3.68489 8.53823 5.05235C7.0731 6.4198 6.25 8.27446 6.25 10.2083C6.25 12.1422 7.0731 13.9969 8.53823 15.3643C10.0034 16.7318 11.9905 17.5 14.0625 17.5Z" fill="white"/>
</svg>
