<svg width="41" height="35" viewBox="0 0 41 35" fill="none" xmlns="http://www.w3.org/2000/svg">
<path d="M5.125 2.1875C4.44538 2.1875 3.7936 2.41797 3.31304 2.8282C2.83248 3.23844 2.5625 3.79484 2.5625 4.375V21.875C2.5625 22.4552 2.83248 23.0116 3.31304 23.4218C3.7936 23.832 4.44538 24.0625 5.125 24.0625H29.6891C31.0483 24.0627 32.3516 24.5238 33.3125 25.3444L38.4375 29.7194V4.375C38.4375 3.79484 38.1675 3.23844 37.687 2.8282C37.2064 2.41797 36.5546 2.1875 35.875 2.1875H5.125ZM35.875 0C37.2342 0 38.5378 0.460936 39.4989 1.28141C40.46 2.10188 41 3.21468 41 4.375V32.3597C40.9999 32.5761 40.9247 32.7877 40.7837 32.9675C40.6428 33.1474 40.4425 33.2876 40.2082 33.3703C39.9739 33.4529 39.7161 33.4744 39.4675 33.432C39.2189 33.3895 38.9907 33.2851 38.8116 33.1319L31.5008 26.8909C31.0204 26.4807 30.3687 26.2501 29.6891 26.25H5.125C3.76577 26.25 2.4622 25.7891 1.50108 24.9686C0.539954 24.1481 0 23.0353 0 21.875V4.375C0 3.21468 0.539954 2.10188 1.50108 1.28141C2.4622 0.460936 3.76577 0 5.125 0L35.875 0Z" fill="white"/>
<path d="M12.8125 13.125C12.8125 13.7052 12.5425 14.2616 12.062 14.6718C11.5814 15.082 10.9296 15.3125 10.25 15.3125C9.57038 15.3125 8.9186 15.082 8.43804 14.6718C7.95748 14.2616 7.6875 13.7052 7.6875 13.125C7.6875 12.5448 7.95748 11.9884 8.43804 11.5782C8.9186 11.168 9.57038 10.9375 10.25 10.9375C10.9296 10.9375 11.5814 11.168 12.062 11.5782C12.5425 11.9884 12.8125 12.5448 12.8125 13.125ZM23.0625 13.125C23.0625 13.7052 22.7925 14.2616 22.312 14.6718C21.8314 15.082 21.1796 15.3125 20.5 15.3125C19.8204 15.3125 19.1686 15.082 18.688 14.6718C18.2075 14.2616 17.9375 13.7052 17.9375 13.125C17.9375 12.5448 18.2075 11.9884 18.688 11.5782C19.1686 11.168 19.8204 10.9375 20.5 10.9375C21.1796 10.9375 21.8314 11.168 22.312 11.5782C22.7925 11.9884 23.0625 12.5448 23.0625 13.125ZM33.3125 13.125C33.3125 13.7052 33.0425 14.2616 32.562 14.6718C32.0814 15.082 31.4296 15.3125 30.75 15.3125C30.0704 15.3125 29.4186 15.082 28.938 14.6718C28.4575 14.2616 28.1875 13.7052 28.1875 13.125C28.1875 12.5448 28.4575 11.9884 28.938 11.5782C29.4186 11.168 30.0704 10.9375 30.75 10.9375C31.4296 10.9375 32.0814 11.168 32.562 11.5782C33.0425 11.9884 33.3125 12.5448 33.3125 13.125Z" fill="white"/>
</svg>
