<svg width="18" height="18" viewBox="0 0 18 18" fill="none" xmlns="http://www.w3.org/2000/svg">
<path d="M8.20463 1.68748C8.4156 1.47657 8.7017 1.35809 9.00001 1.35809C9.29832 1.35809 9.58442 1.47657 9.79538 1.68748L12.375 4.2671V2.81248C12.375 2.66329 12.4343 2.52022 12.5398 2.41473C12.6453 2.30924 12.7883 2.24998 12.9375 2.24998H14.0625C14.2117 2.24998 14.3548 2.30924 14.4603 2.41473C14.5657 2.52022 14.625 2.66329 14.625 2.81248V6.5171L17.2733 9.16423C17.3787 9.26985 17.4379 9.41305 17.4378 9.56231C17.4377 9.71158 17.3783 9.85469 17.2727 9.96017C17.1671 10.0656 17.0239 10.1248 16.8746 10.1247C16.7253 10.1246 16.5822 10.0652 16.4768 9.9596L9.00001 2.48285L1.52326 9.9596C1.41778 10.0652 1.27467 10.1246 1.12541 10.1247C0.976138 10.1248 0.832943 10.0656 0.72732 9.96017C0.621698 9.85469 0.5623 9.71158 0.562195 9.56231C0.562089 9.41305 0.621285 9.26985 0.726758 9.16423L8.20463 1.68748Z" fill="white"/>
<path d="M15.75 10.4547L9 3.70465L2.25 10.4547V15.1875C2.25 15.6351 2.42779 16.0643 2.74426 16.3808C3.06072 16.6972 3.48995 16.875 3.9375 16.875H14.0625C14.5101 16.875 14.9393 16.6972 15.2557 16.3808C15.5722 16.0643 15.75 15.6351 15.75 15.1875V10.4547ZM9 9.54228C10.872 7.66015 15.5531 10.953 9 15.1875C2.44688 10.953 7.128 7.66015 9 9.54228Z" fill="white"/>
</svg>
