<svg width="18" height="18" viewBox="0 0 18 18" fill="none" xmlns="http://www.w3.org/2000/svg">
<g clip-path="url(#clip0_21_460)">
<path fill-rule="evenodd" clip-rule="evenodd" d="M11.25 3.9375C11.25 3.78832 11.1907 3.64524 11.0852 3.53975C10.9798 3.43426 10.8367 3.375 10.6875 3.375H1.6875C1.53832 3.375 1.39524 3.43426 1.28975 3.53975C1.18426 3.64524 1.125 3.78832 1.125 3.9375V14.0625C1.125 14.2117 1.18426 14.3548 1.28975 14.4602C1.39524 14.5657 1.53832 14.625 1.6875 14.625H10.6875C10.8367 14.625 10.9798 14.5657 11.0852 14.4602C11.1907 14.3548 11.25 14.2117 11.25 14.0625V11.8125C11.25 11.6633 11.3093 11.5202 11.4148 11.4148C11.5202 11.3093 11.6633 11.25 11.8125 11.25C11.9617 11.25 12.1048 11.3093 12.2102 11.4148C12.3157 11.5202 12.375 11.6633 12.375 11.8125V14.0625C12.375 14.5101 12.1972 14.9393 11.8807 15.2557C11.5643 15.5722 11.1351 15.75 10.6875 15.75H1.6875C1.23995 15.75 0.810724 15.5722 0.494257 15.2557C0.17779 14.9393 0 14.5101 0 14.0625V3.9375C0 3.48995 0.17779 3.06072 0.494257 2.74426C0.810724 2.42779 1.23995 2.25 1.6875 2.25H10.6875C11.1351 2.25 11.5643 2.42779 11.8807 2.74426C12.1972 3.06072 12.375 3.48995 12.375 3.9375V6.1875C12.375 6.33668 12.3157 6.47976 12.2102 6.58525C12.1048 6.69074 11.9617 6.75 11.8125 6.75C11.6633 6.75 11.5202 6.69074 11.4148 6.58525C11.3093 6.47976 11.25 6.33668 11.25 6.1875V3.9375Z" fill="white"/>
<path fill-rule="evenodd" clip-rule="evenodd" d="M17.8356 8.60177C17.888 8.65402 17.9296 8.7161 17.9579 8.78443C17.9863 8.85277 18.0009 8.92603 18.0009 9.00002C18.0009 9.07401 17.9863 9.14727 17.9579 9.21561C17.9296 9.28395 17.888 9.34602 17.8356 9.39827L14.4606 12.7733C14.4083 12.8256 14.3462 12.8671 14.2779 12.8954C14.2096 12.9237 14.1363 12.9382 14.0624 12.9382C13.9884 12.9382 13.9152 12.9237 13.8468 12.8954C13.7785 12.8671 13.7164 12.8256 13.6641 12.7733C13.6118 12.721 13.5703 12.6589 13.542 12.5906C13.5137 12.5222 13.4992 12.449 13.4992 12.375C13.4992 12.3011 13.5137 12.2278 13.542 12.1595C13.5703 12.0912 13.6118 12.0291 13.6641 11.9768L16.0795 9.56252H6.18738C6.0382 9.56252 5.89512 9.50326 5.78963 9.39777C5.68414 9.29228 5.62488 9.14921 5.62488 9.00002C5.62488 8.85084 5.68414 8.70776 5.78963 8.60227C5.89512 8.49678 6.0382 8.43752 6.18738 8.43752H16.0795L13.6641 6.02327C13.6118 5.97097 13.5703 5.90889 13.542 5.84055C13.5137 5.77222 13.4992 5.69898 13.4992 5.62502C13.4992 5.55106 13.5137 5.47782 13.542 5.40949C13.5703 5.34116 13.6118 5.27907 13.6641 5.22677C13.7164 5.17447 13.7785 5.13299 13.8468 5.10468C13.9152 5.07638 13.9884 5.06181 14.0624 5.06181C14.1363 5.06181 14.2096 5.07638 14.2779 5.10468C14.3462 5.13299 14.4083 5.17447 14.4606 5.22677L17.8356 8.60177Z" fill="white"/>
</g>
<defs>
<clipPath id="clip0_21_460">
<rect width="18" height="18" fill="white" transform="matrix(-1 0 0 -1 18 18)"/>
</clipPath>
</defs>
</svg>
