<svg width="18" height="18" viewBox="0 0 18 18" fill="none" xmlns="http://www.w3.org/2000/svg">
<g clip-path="url(#clip0_21_457)">
<path fill-rule="evenodd" clip-rule="evenodd" d="M6.75 14.0625C6.75 14.2117 6.80926 14.3548 6.91475 14.4602C7.02024 14.5657 7.16332 14.625 7.3125 14.625H16.3125C16.4617 14.625 16.6048 14.5657 16.7102 14.4602C16.8157 14.3548 16.875 14.2117 16.875 14.0625V3.9375C16.875 3.78832 16.8157 3.64524 16.7102 3.53975C16.6048 3.43426 16.4617 3.375 16.3125 3.375H7.3125C7.16332 3.375 7.02024 3.43426 6.91475 3.53975C6.80926 3.64524 6.75 3.78832 6.75 3.9375V6.1875C6.75 6.33668 6.69074 6.47976 6.58525 6.58525C6.47976 6.69074 6.33668 6.75 6.1875 6.75C6.03832 6.75 5.89524 6.69074 5.78975 6.58525C5.68426 6.47976 5.625 6.33668 5.625 6.1875V3.9375C5.625 3.48995 5.80279 3.06072 6.11926 2.74426C6.43572 2.42779 6.86495 2.25 7.3125 2.25H16.3125C16.7601 2.25 17.1893 2.42779 17.5057 2.74426C17.8222 3.06072 18 3.48995 18 3.9375V14.0625C18 14.5101 17.8222 14.9393 17.5057 15.2557C17.1893 15.5722 16.7601 15.75 16.3125 15.75H7.3125C6.86495 15.75 6.43572 15.5722 6.11926 15.2557C5.80279 14.9393 5.625 14.5101 5.625 14.0625V11.8125C5.625 11.6633 5.68426 11.5202 5.78975 11.4148C5.89524 11.3093 6.03832 11.25 6.1875 11.25C6.33668 11.25 6.47976 11.3093 6.58525 11.4148C6.69074 11.5202 6.75 11.6633 6.75 11.8125V14.0625Z" fill="white"/>
<path fill-rule="evenodd" clip-rule="evenodd" d="M0.16437 9.39823C0.111987 9.34598 0.0704262 9.2839 0.0420689 9.21557C0.0137116 9.14723 -0.00088501 9.07397 -0.00088501 8.99998C-0.00088501 8.92599 0.0137116 8.85273 0.0420689 8.78439C0.0704262 8.71605 0.111987 8.65398 0.16437 8.60173L3.53937 5.22673C3.59167 5.17443 3.65376 5.13294 3.72209 5.10464C3.79042 5.07634 3.86366 5.06177 3.93762 5.06177C4.01158 5.06177 4.08482 5.07634 4.15315 5.10464C4.22148 5.13294 4.28357 5.17443 4.33587 5.22673C4.38817 5.27903 4.42966 5.34111 4.45796 5.40945C4.48626 5.47778 4.50083 5.55102 4.50083 5.62498C4.50083 5.69894 4.48626 5.77218 4.45796 5.84051C4.42966 5.90884 4.38817 5.97093 4.33587 6.02323L1.9205 8.43748H11.8126C11.9618 8.43748 12.1049 8.49674 12.2104 8.60223C12.3159 8.70772 12.3751 8.85079 12.3751 8.99998C12.3751 9.14916 12.3159 9.29224 12.2104 9.39773C12.1049 9.50322 11.9618 9.56248 11.8126 9.56248H1.9205L4.33587 11.9767C4.38817 12.029 4.42966 12.0911 4.45796 12.1594C4.48626 12.2278 4.50083 12.301 4.50083 12.375C4.50083 12.4489 4.48626 12.5222 4.45796 12.5905C4.42966 12.6588 4.38817 12.7209 4.33587 12.7732C4.28357 12.8255 4.22148 12.867 4.15315 12.8953C4.08482 12.9236 4.01158 12.9382 3.93762 12.9382C3.86366 12.9382 3.79042 12.9236 3.72209 12.8953C3.65376 12.867 3.59167 12.8255 3.53937 12.7732L0.16437 9.39823Z" fill="white"/>
</g>
<defs>
<clipPath id="clip0_21_457">
<rect width="18" height="18" fill="white"/>
</clipPath>
</defs>
</svg>
