<svg width="18" height="18" viewBox="0 0 18 18" fill="none" xmlns="http://www.w3.org/2000/svg">
<g clip-path="url(#clip0_23_4)">
<path d="M2.8125 1.125C2.66332 1.125 2.52024 1.06574 2.41475 0.960248C2.30926 0.854758 2.25 0.711684 2.25 0.5625C2.25 0.413316 2.30926 0.270242 2.41475 0.164752C2.52024 0.0592632 2.66332 0 2.8125 0H15.1875C15.3367 0 15.4798 0.0592632 15.5852 0.164752C15.6907 0.270242 15.75 0.413316 15.75 0.5625C15.75 0.711684 15.6907 0.854758 15.5852 0.960248C15.4798 1.06574 15.3367 1.125 15.1875 1.125H2.8125ZM5.0625 -1.125C4.91332 -1.125 4.77024 -1.18426 4.66475 -1.28975C4.55926 -1.39524 4.5 -1.53832 4.5 -1.6875C4.5 -1.83668 4.55926 -1.97976 4.66475 -2.08525C4.77024 -2.19074 4.91332 -2.25 5.0625 -2.25H12.9375C13.0867 -2.25 13.2298 -2.19074 13.3352 -2.08525C13.4407 -1.97976 13.5 -1.83668 13.5 -1.6875C13.5 -1.53832 13.4407 -1.39524 13.3352 -1.28975C13.2298 -1.18426 13.0867 -1.125 12.9375 -1.125H5.0625ZM0 11.8125C0 12.2601 0.17779 12.6893 0.494257 13.0057C0.810725 13.3222 1.23995 13.5 1.6875 13.5H16.3125C16.7601 13.5 17.1893 13.3222 17.5057 13.0057C17.8222 12.6893 18 12.2601 18 11.8125V3.9375C18 3.48995 17.8222 3.06072 17.5057 2.74426C17.1893 2.42779 16.7601 2.25 16.3125 2.25H1.6875C1.23995 2.25 0.810725 2.42779 0.494257 2.74426C0.17779 3.06072 0 3.48995 0 3.9375L0 11.8125ZM1.6875 12.375C1.53832 12.375 1.39524 12.3157 1.28975 12.2102C1.18426 12.1048 1.125 11.9617 1.125 11.8125V3.9375C1.125 3.78832 1.18426 3.64524 1.28975 3.53975C1.39524 3.43426 1.53832 3.375 1.6875 3.375H16.3125C16.4617 3.375 16.6048 3.43426 16.7102 3.53975C16.8157 3.64524 16.875 3.78832 16.875 3.9375V11.8125C16.875 11.9617 16.8157 12.1048 16.7102 12.2102C16.6048 12.3157 16.4617 12.375 16.3125 12.375H1.6875Z" fill="#FFF1F1"/>
</g>
<defs>
<clipPath id="clip0_23_4">
<rect width="18" height="18" fill="white"/>
</clipPath>
</defs>
</svg>
