<svg width="18" height="18" viewBox="0 0 18 18" fill="none" xmlns="http://www.w3.org/2000/svg">
<g clip-path="url(#clip0_21_454)">
<path d="M2.25 1.125C1.95163 1.125 1.66548 1.24353 1.4545 1.4545C1.24353 1.66548 1.125 1.95163 1.125 2.25V11.25C1.125 11.5484 1.24353 11.8345 1.4545 12.0455C1.66548 12.2565 1.95163 12.375 2.25 12.375H13.0343C13.6309 12.3751 14.2031 12.6123 14.625 13.0343L16.875 15.2843V2.25C16.875 1.95163 16.7565 1.66548 16.5455 1.4545C16.3345 1.24353 16.0484 1.125 15.75 1.125H2.25ZM15.75 0C16.3467 0 16.919 0.237053 17.341 0.65901C17.7629 1.08097 18 1.65326 18 2.25V16.6421C18 16.7534 17.9669 16.8622 17.9051 16.9547C17.8432 17.0473 17.7552 17.1193 17.6524 17.1618C17.5495 17.2044 17.4364 17.2154 17.3272 17.1936C17.2181 17.1718 17.1179 17.1181 17.0392 17.0392L13.8296 13.8296C13.6187 13.6186 13.3326 13.5001 13.0343 13.5H2.25C1.65326 13.5 1.08097 13.2629 0.65901 12.841C0.237053 12.419 0 11.8467 0 11.25V2.25C0 1.65326 0.237053 1.08097 0.65901 0.65901C1.08097 0.237053 1.65326 0 2.25 0L15.75 0Z" fill="white"/>
<path d="M5.625 6.75C5.625 7.04837 5.50647 7.33452 5.29549 7.54549C5.08452 7.75647 4.79837 7.875 4.5 7.875C4.20163 7.875 3.91548 7.75647 3.7045 7.54549C3.49353 7.33452 3.375 7.04837 3.375 6.75C3.375 6.45163 3.49353 6.16548 3.7045 5.95451C3.91548 5.74353 4.20163 5.625 4.5 5.625C4.79837 5.625 5.08452 5.74353 5.29549 5.95451C5.50647 6.16548 5.625 6.45163 5.625 6.75ZM10.125 6.75C10.125 7.04837 10.0065 7.33452 9.7955 7.54549C9.58452 7.75647 9.29837 7.875 9 7.875C8.70163 7.875 8.41548 7.75647 8.2045 7.54549C7.99353 7.33452 7.875 7.04837 7.875 6.75C7.875 6.45163 7.99353 6.16548 8.2045 5.95451C8.41548 5.74353 8.70163 5.625 9 5.625C9.29837 5.625 9.58452 5.74353 9.7955 5.95451C10.0065 6.16548 10.125 6.45163 10.125 6.75ZM14.625 6.75C14.625 7.04837 14.5065 7.33452 14.2955 7.54549C14.0845 7.75647 13.7984 7.875 13.5 7.875C13.2016 7.875 12.9155 7.75647 12.7045 7.54549C12.4935 7.33452 12.375 7.04837 12.375 6.75C12.375 6.45163 12.4935 6.16548 12.7045 5.95451C12.9155 5.74353 13.2016 5.625 13.5 5.625C13.7984 5.625 14.0845 5.74353 14.2955 5.95451C14.5065 6.16548 14.625 6.45163 14.625 6.75Z" fill="white"/>
</g>
<defs>
<clipPath id="clip0_21_454">
<rect width="18" height="18" fill="white"/>
</clipPath>
</defs>
</svg>
